<?xml version="1.0" encoding="UTF-8" standalone="no"?>
<svg
   xmlns:dc="http://purl.org/dc/elements/1.1/"
   xmlns:cc="http://creativecommons.org/ns#"
   xmlns:rdf="http://www.w3.org/1999/02/22-rdf-syntax-ns#"
   xmlns:svg="http://www.w3.org/2000/svg"
   xmlns="http://www.w3.org/2000/svg"
   xmlns:sodipodi="http://sodipodi.sourceforge.net/DTD/sodipodi-0.dtd"
   xmlns:inkscape="http://www.inkscape.org/namespaces/inkscape"
   version="1.1"
   width="48"
   height="48"
   id="svg49"
   sodipodi:docname="icon.svg"
   inkscape:version="1.0.1 (3bc2e813f5, 2020-09-07)"
   inkscape:export-filename="/home/ashcon/code/OpenVehicleDiag/app/build/icons/16x16.png"
   inkscape:export-xdpi="34.909092"
   inkscape:export-ydpi="34.909092">
  <metadata
     id="metadata53">
    <rdf:RDF>
      <cc:Work
         rdf:about="">
        <dc:format>image/svg+xml</dc:format>
        <dc:type
           rdf:resource="http://purl.org/dc/dcmitype/StillImage" />
      </cc:Work>
    </rdf:RDF>
  </metadata>
  <sodipodi:namedview
     pagecolor="#ffffff"
     bordercolor="#666666"
     borderopacity="1"
     objecttolerance="10"
     gridtolerance="10"
     guidetolerance="10"
     inkscape:pageopacity="0"
     inkscape:pageshadow="2"
     inkscape:window-width="1920"
     inkscape:window-height="1006"
     id="namedview51"
     showgrid="false"
     inkscape:zoom="12.551145"
     inkscape:cx="-6.6834049"
     inkscape:cy="20.673313"
     inkscape:window-x="1920"
     inkscape:window-y="0"
     inkscape:window-maximized="1"
     inkscape:current-layer="svg49" />
  <defs
     id="defs25">
    <linearGradient
       x1="9.82524"
       y1="11.40021"
       x2="55.61489"
       y2="54.03994"
       gradientUnits="userSpaceOnUse"
       id="color-1">
      <stop
         offset="0.48"
         stop-color="#000000"
         stop-opacity="0.27"
         id="stop2" />
      <stop
         offset="1"
         stop-color="#000000"
         stop-opacity="0"
         id="stop4" />
    </linearGradient>
    <filter
       id="dropshadow-base">
      <feColorMatrix
         type="matrix"
         values="0 0 0 0 0  0 0 0 0 0  0 0 0 0 0  0 0 0 .8 0"
         id="feColorMatrix7" />
      <feOffset
         dx="0"
         dy="1"
         id="feOffset9" />
      <feGaussianBlur
         stdDeviation="1"
         id="feGaussianBlur11"
         result="result1" />
      <feComposite
         in="SourceGraphic"
         in2="result1"
         id="feComposite13" />
    </filter>
    <filter
       id="dropshadow-banner"
       x="-10%"
       y="-10%"
       width="120%"
       height="130%">
      <feColorMatrix
         type="matrix"
         values="0 0 0 0 0  0 0 0 0 0  0 0 0 0 0  0 0 0 .4 0"
         id="feColorMatrix16" />
      <feOffset
         dx="0"
         dy="1"
         id="feOffset18" />
      <feGaussianBlur
         stdDeviation="0.5"
         id="feGaussianBlur20"
         result="result1" />
      <feComposite
         in="SourceGraphic"
         in2="result1"
         id="feComposite22" />
    </filter>
  </defs>
  <g
     fill="none"
     fill-rule="nonzero"
     stroke="none"
     stroke-width="none"
     stroke-linecap="butt"
     stroke-linejoin="miter"
     stroke-miterlimit="10"
     stroke-dasharray=""
     stroke-dashoffset="0"
     font-family="none"
     font-weight="none"
     font-size="none"
     text-anchor="none"
     style="mix-blend-mode: normal"
     id="g47">
    <path
       d="M7,43c-1.10457,0 -2,-0.89543 -2,-2v-34c0,-1.10457 0.89543,-2 2,-2h34c1.10457,0 2,0.89543 2,2v34c0,1.10457 -0.89543,2 -2,2z"
       id="base 1 5 1"
       fill="#e3730b"
       stroke-width="1" />
    <path
       d="M10.28789,36.13714c-0.28546,-0.28546 -0.46265,-0.67921 -0.46265,-1.11232v-12.59979l3.27594,-9.4341c0.32287,-0.92923 1.20485,-1.59072 2.23647,-1.59072h17.3247c0.65202,0 1.24428,0.26425 1.67336,0.69334l8.66429,8.66429v20.24217c0,1.10457 -0.89543,2 -2,2h-23.84925z"
       fill="url(#color-1)"
       stroke-width="1"
       id="path28" />
    <path
       d="M34.89881,12.99094c-0.32287,-0.92923 -1.20485,-1.59072 -2.23646,-1.59072h-17.32471c-1.03161,0 -1.91359,0.66149 -2.23646,1.59072l-3.27594,9.43409v12.59979c0,0.86624 0.70874,1.57497 1.57497,1.57497h1.57497c0.87411,0 1.57497,-0.70874 1.57497,-1.57497v-1.57497h18.89968v1.57497c0,0.86624 0.70874,1.57497 1.57497,1.57497h1.57497c0.87411,0 1.57497,-0.70874 1.57497,-1.57497v-12.59979zM15.33765,28.72492c-1.30723,0 -2.36246,-1.05523 -2.36246,-2.36246c0,-1.30723 1.05523,-2.36246 2.36246,-2.36246c1.30723,0 2.36246,1.05523 2.36246,2.36246c0,1.30723 -1.05523,2.36246 -2.36246,2.36246zM32.66235,28.72492c-1.30723,0 -2.36246,-1.05523 -2.36246,-2.36246c0,-1.30723 1.05523,-2.36246 2.36246,-2.36246c1.30723,0 2.36246,1.05523 2.36246,2.36246c0,1.30723 -1.05523,2.36246 -2.36246,2.36246zM12.97519,20.85005l2.36246,-7.08738h17.32471l2.36246,7.08738z"
       fill="none"
       stroke-width="0"
       id="path30" />
    <path
       d="M38.17476,22.42503v12.59979c0,0.86624 -0.70086,1.57497 -1.57497,1.57497h-1.57497c-0.86624,0 -1.57497,-0.70874 -1.57497,-1.57497v-1.57497h-18.89968v1.57497c0,0.86624 -0.70086,1.57497 -1.57497,1.57497h-1.57497c-0.86624,0 -1.57497,-0.70874 -1.57497,-1.57497v-12.59979l3.27594,-9.43409c0.32287,-0.92923 1.20485,-1.59072 2.23646,-1.59072h17.32471c1.03161,0 1.91359,0.66149 2.23646,1.59072zM17.70011,26.36246c0,-1.30723 -1.05523,-2.36246 -2.36246,-2.36246c-1.30723,0 -2.36246,1.05523 -2.36246,2.36246c0,1.30723 1.05523,2.36246 2.36246,2.36246c1.30723,0 2.36246,-1.05523 2.36246,-2.36246zM35.02481,26.36246c0,-1.30723 -1.05523,-2.36246 -2.36246,-2.36246c-1.30723,0 -2.36246,1.05523 -2.36246,2.36246c0,1.30723 1.05523,2.36246 2.36246,2.36246c1.30723,0 2.36246,-1.05523 2.36246,-2.36246zM35.02481,20.85005l-2.36246,-7.08738h-17.32471l-2.36246,7.08738z"
       fill="#ffffff"
       stroke-width="0"
       id="path32" />
    <path
       d="M2,24c0,-12.15026 9.84974,-22 22,-22c12.15026,0 22,9.84974 22,22c0,12.15026 -9.84974,22 -22,22c-12.15026,0 -22,-9.84974 -22,-22z"
       id="base 1 1 1"
       fill="none"
       stroke-width="1" />
    <g
       fill="#000000"
       stroke-width="1"
       font-family="Roboto, sans-serif"
       font-weight="400"
       font-size="14"
       text-anchor="start"
       id="g35" />
    <rect
       x="2"
       y="2"
       width="44"
       height="22"
       fill="none"
       stroke-width="1"
       id="rect37" />
    <path
       d="M2,24v-22h44v22z"
       fill="none"
       stroke-width="1"
       id="path39" />
    <path
       d="M2,24v-22h44v22z"
       fill="none"
       stroke-width="1"
       id="path41" />
    <path
       d="M2,24v-22h44v22z"
       fill="none"
       stroke-width="1"
       id="path43" />
    <path
       d="M2,24v-22h44v22z"
       fill="none"
       stroke-width="1"
       id="path45" />
  </g>
  <text
     xml:space="preserve"
     style="font-style:normal;font-weight:normal;font-size:8px;line-height:1.25;font-family:sans-serif;fill:#d40000;fill-opacity:1;stroke:none"
     x="22.390827"
     y="20.207951"
     id="text57"><tspan
       sodipodi:role="line"
       id="tspan55"
       x="22.390827"
       y="20.207951"
       style="font-size:8px;fill:#d40000">!</tspan></text>
</svg>
